<svg width="211" height="55" viewBox="0 0 211 55" fill="none" xmlns="http://www.w3.org/2000/svg">
<rect width="211" height="55" rx="27.5" fill="#FE5F1E"/>
<path d="M47.9479 32.192C51.1799 32.192 53.5319 29.888 53.5319 26.672C53.5319 23.456 51.1799 21.152 47.9479 21.152C44.7319 21.152 42.3799 23.456 42.3799 26.672C42.3799 29.888 44.7319 32.192 47.9479 32.192ZM47.9479 30.176C45.9799 30.176 44.7159 28.656 44.7159 26.672C44.7159 24.672 45.9799 23.168 47.9479 23.168C49.9159 23.168 51.1959 24.672 51.1959 26.672C51.1959 28.656 49.9159 30.176 47.9479 30.176ZM62.3423 32V24.272H55.0783V32H57.1103V26.048H60.3103V32H62.3423ZM63.6396 32.192C65.6076 32.192 66.5676 30.928 66.8876 28.256L67.1436 26.048H69.5916V32H71.6236V24.272H65.3676L64.8716 28.016C64.6316 29.888 64.2636 30.528 63.6396 30.528V32.192ZM80.3128 32V27.008C80.3128 24.784 78.6968 24.08 76.9368 24.08C75.7208 24.08 74.5048 24.464 73.5608 25.296L74.3288 26.656C74.9848 26.048 75.7528 25.744 76.5848 25.744C77.6088 25.744 78.2808 26.256 78.2808 27.04V28.08C77.7688 27.472 76.8568 27.136 75.8328 27.136C74.6008 27.136 73.1448 27.824 73.1448 29.632C73.1448 31.36 74.6008 32.192 75.8328 32.192C76.8408 32.192 77.7528 31.824 78.2808 31.2V32H80.3128ZM76.6488 30.816C75.8488 30.816 75.1928 30.4 75.1928 29.68C75.1928 28.928 75.8488 28.512 76.6488 28.512C77.3048 28.512 77.9448 28.736 78.2808 29.184V30.144C77.9448 30.592 77.3048 30.816 76.6488 30.816ZM85.8003 32V26.048H87.9603V24.272H81.5923V26.048H83.7523V32H85.8003ZM91.1866 32L94.4666 27.152V32H96.4986V24.272H94.4506L91.2666 28.944V24.272H89.2346V32H91.1866ZM101.988 32V26.048H104.148V24.272H97.7798V26.048H99.9398V32H101.988ZM105.422 24.272V32H110.094C111.822 32 112.782 30.832 112.782 29.456C112.782 28.096 111.886 26.928 110.094 26.928H107.454V24.272H105.422ZM109.79 28.624C110.366 28.624 110.702 28.976 110.702 29.456C110.702 29.936 110.366 30.288 109.79 30.288H107.454V28.624H109.79ZM121.96 32.192C123.544 32.192 124.504 31.504 125.016 30.784L123.688 29.552C123.32 30.064 122.76 30.384 122.056 30.384C120.824 30.384 119.96 29.472 119.96 28.128C119.96 26.784 120.824 25.888 122.056 25.888C122.76 25.888 123.32 26.176 123.688 26.72L125.016 25.472C124.504 24.768 123.544 24.08 121.96 24.08C119.576 24.08 117.864 25.76 117.864 28.128C117.864 30.512 119.576 32.192 121.96 32.192ZM129.976 32.192C131.176 32.192 132.392 31.824 133.16 31.12L132.264 29.808C131.768 30.288 130.856 30.576 130.2 30.576C128.888 30.576 128.104 29.76 127.976 28.784H133.72V28.336C133.72 25.808 132.152 24.08 129.848 24.08C127.496 24.08 125.848 25.888 125.848 28.128C125.848 30.608 127.624 32.192 129.976 32.192ZM131.752 27.408H127.944C128.04 26.64 128.584 25.696 129.848 25.696C131.192 25.696 131.704 26.672 131.752 27.408ZM137.14 32L140.42 27.152V32H142.452V24.272H140.404L137.22 28.944V24.272H135.188V32H137.14ZM141.62 22.096L140.724 21.344C140.276 21.968 139.62 22.336 138.82 22.336C137.988 22.336 137.332 21.952 136.9 21.344L136.004 22.096C136.66 22.96 137.684 23.504 138.82 23.504C139.972 23.504 140.98 22.96 141.62 22.096ZM144.229 24.272V27.072C144.229 28.672 145.029 29.616 147.189 29.616C148.149 29.616 148.949 29.408 149.445 29.136V32H151.493V24.272H149.445V27.504C149.093 27.68 148.597 27.808 147.893 27.808C146.821 27.808 146.261 27.456 146.261 26.368V24.272H144.229ZM160.172 32V27.008C160.172 24.784 158.556 24.08 156.796 24.08C155.58 24.08 154.364 24.464 153.42 25.296L154.188 26.656C154.844 26.048 155.612 25.744 156.444 25.744C157.468 25.744 158.14 26.256 158.14 27.04V28.08C157.628 27.472 156.716 27.136 155.692 27.136C154.46 27.136 153.004 27.824 153.004 29.632C153.004 31.36 154.46 32.192 155.692 32.192C156.7 32.192 157.612 31.824 158.14 31.2V32H160.172ZM156.508 30.816C155.708 30.816 155.052 30.4 155.052 29.68C155.052 28.928 155.708 28.512 156.508 28.512C157.164 28.512 157.804 28.736 158.14 29.184V30.144C157.804 30.592 157.164 30.816 156.508 30.816ZM165.788 32.192C167.372 32.192 168.332 31.504 168.844 30.784L167.516 29.552C167.148 30.064 166.588 30.384 165.884 30.384C164.652 30.384 163.788 29.472 163.788 28.128C163.788 26.784 164.652 25.888 165.884 25.888C166.588 25.888 167.148 26.176 167.516 26.72L168.844 25.472C168.332 24.768 167.372 24.08 165.788 24.08C163.404 24.08 161.692 25.76 161.692 28.128C161.692 30.512 163.404 32.192 165.788 32.192Z" fill="white"/>
</svg>
