<svg width="211" height="55" viewBox="0 0 211 55" fill="none" xmlns="http://www.w3.org/2000/svg">
<rect x="0.5" y="0.5" width="210" height="54" rx="27" fill="white" stroke="#D3D3D3"/>
<path d="M37 33L31 26.9302L36.8618 21" stroke="#D3D3D3" stroke-width="1.5" stroke-linecap="round" stroke-linejoin="round"/>
<path d="M56.1042 32C58.0562 32 59.1922 30.832 59.1922 29.12C59.1922 27.84 58.2482 26.672 57.1122 26.496C58.0882 26.288 58.9842 25.392 58.9842 24.048C58.9842 22.448 57.8482 21.328 55.9922 21.328H51.2402V32H56.1042ZM55.7682 25.952H52.5682V22.512H55.7682C56.9682 22.512 57.6082 23.28 57.6082 24.24C57.6082 25.216 56.9682 25.952 55.7682 25.952ZM55.8322 30.816H52.5682V27.136H55.8322C57.1442 27.136 57.8162 28 57.8162 28.976C57.8162 30.112 57.0802 30.816 55.8322 30.816ZM64.7427 32.192C66.0067 32.192 67.0467 31.776 67.8147 31.008L67.2387 30.224C66.6307 30.848 65.7347 31.2 64.8547 31.2C63.1907 31.2 62.1667 29.984 62.0707 28.528H68.3267V28.224C68.3267 25.904 66.9507 24.08 64.6147 24.08C62.4067 24.08 60.8067 25.888 60.8067 28.128C60.8067 30.544 62.4547 32.192 64.7427 32.192ZM67.1427 27.648H62.0707C62.1347 26.464 62.9507 25.072 64.5987 25.072C66.3587 25.072 67.1267 26.496 67.1427 27.648ZM74.0783 32.192C76.1103 32.192 77.5183 30.624 77.5183 28.128C77.5183 25.616 76.1103 24.08 74.0783 24.08C72.9903 24.08 72.0303 24.64 71.4703 25.424V24.272H70.2703V34.944H71.4703V30.832C72.0943 31.696 73.0223 32.192 74.0783 32.192ZM73.7743 31.12C72.8303 31.12 71.8863 30.544 71.4703 29.872V26.384C71.8863 25.712 72.8303 25.152 73.7743 25.152C75.3263 25.152 76.2543 26.416 76.2543 28.128C76.2543 29.84 75.3263 31.12 73.7743 31.12ZM80.6266 32V28.544H84.6586V32H85.8586V24.272H84.6586V27.488H80.6266V24.272H79.4266V32H80.6266ZM87.8227 35.024C88.0467 35.088 88.4467 35.136 88.7027 35.136C89.7267 35.12 90.5107 34.688 90.9747 33.568L94.8467 24.272H93.5347L90.9747 30.608L88.3987 24.272H87.1027L90.3347 32.08L89.8227 33.248C89.5507 33.888 89.1987 34.064 88.6707 34.064C88.4787 34.064 88.1907 34.016 88.0147 33.936L87.8227 35.024ZM98.7064 32V25.328H100.962V24.272H95.2664V25.328H97.5064V32H98.7064ZM102.536 24.272V32H106.632C108.216 32 109.064 30.912 109.064 29.632C109.064 28.368 108.232 27.264 106.632 27.264H103.736V24.272H102.536ZM106.504 28.32C107.384 28.32 107.832 28.88 107.832 29.632C107.832 30.4 107.368 30.944 106.504 30.944H103.736V28.32H106.504ZM114.303 32.192C115.711 32.192 116.543 31.616 117.135 30.848L116.335 30.112C115.823 30.8 115.167 31.12 114.367 31.12C112.719 31.12 111.695 29.84 111.695 28.128C111.695 26.416 112.719 25.152 114.367 25.152C115.167 25.152 115.823 25.456 116.335 26.16L117.135 25.424C116.543 24.656 115.711 24.08 114.303 24.08C111.999 24.08 110.447 25.84 110.447 28.128C110.447 30.432 111.999 32.192 114.303 32.192ZM119.969 32L121.857 29.008H123.969V32H125.169V24.272H121.089C119.521 24.272 118.641 25.328 118.641 26.64C118.641 27.936 119.473 28.816 120.625 28.96L118.561 32H119.969ZM121.217 27.952C120.337 27.952 119.873 27.408 119.873 26.64C119.873 25.872 120.369 25.328 121.217 25.328H123.969V27.952H121.217ZM132.892 32V28.544H136.924V32H138.124V24.272H136.924V27.488H132.892V24.272H131.692V32H132.892ZM146.552 32V26.688C146.552 24.816 145.192 24.08 143.56 24.08C142.296 24.08 141.304 24.496 140.472 25.36L141.032 26.192C141.72 25.456 142.472 25.12 143.4 25.12C144.52 25.12 145.352 25.712 145.352 26.752V28.144C144.728 27.424 143.848 27.088 142.792 27.088C141.48 27.088 140.088 27.904 140.088 29.632C140.088 31.312 141.48 32.192 142.792 32.192C143.832 32.192 144.712 31.824 145.352 31.12V32H146.552ZM143.224 31.328C142.104 31.328 141.32 30.624 141.32 29.648C141.32 28.656 142.104 27.952 143.224 27.952C144.072 27.952 144.888 28.272 145.352 28.912V30.368C144.888 31.008 144.072 31.328 143.224 31.328ZM151.694 32.192C153.918 32.192 155.23 31.232 155.23 29.936C155.23 28.656 153.886 28.112 152.99 28.048C153.902 27.936 155.07 27.312 155.07 26.16C155.07 24.848 153.598 24.08 151.518 24.096C150.11 24.096 149.07 24.592 148.35 25.328L148.974 26.064C149.63 25.392 150.478 25.072 151.566 25.072C152.846 25.072 153.822 25.568 153.822 26.304C153.822 27.184 152.814 27.6 151.534 27.6H149.806V28.576H151.534C152.894 28.576 153.966 28.896 153.966 29.856C153.966 30.672 153.07 31.2 151.694 31.2C150.542 31.2 149.518 30.848 148.798 30.16L148.206 30.928C148.974 31.696 150.142 32.192 151.694 32.192ZM163.209 32V26.688C163.209 24.816 161.849 24.08 160.217 24.08C158.953 24.08 157.961 24.496 157.129 25.36L157.689 26.192C158.377 25.456 159.129 25.12 160.057 25.12C161.177 25.12 162.009 25.712 162.009 26.752V28.144C161.385 27.424 160.505 27.088 159.449 27.088C158.137 27.088 156.745 27.904 156.745 29.632C156.745 31.312 158.137 32.192 159.449 32.192C160.489 32.192 161.369 31.824 162.009 31.12V32H163.209ZM159.881 31.328C158.761 31.328 157.977 30.624 157.977 29.648C157.977 28.656 158.761 27.952 159.881 27.952C160.729 27.952 161.545 28.272 162.009 28.912V30.368C161.545 31.008 160.729 31.328 159.881 31.328ZM164.702 33.968H165.902V32H171.742V33.968H172.942V30.944H172.046V24.272H166.67L166.174 28.08C165.87 30.368 165.422 30.88 164.702 31.008V33.968ZM167.726 25.328H170.846V30.944H166.254C166.814 30.496 167.182 29.68 167.374 28.224L167.726 25.328Z" fill="#CACACA"/>
</svg>
